# Blender v2.78 (sub 0) OBJ File: '2.blend'
# www.blender.org
mtllib PUSHILIN_billboard.mtl
o billboard
v 0.039817 -0.706510 -0.000981
v 0.007779 -0.706510 -0.078325
v -0.069565 -0.706510 -0.110363
v -0.146909 -0.706510 -0.078325
v -0.178946 -0.706510 -0.000981
v -0.146909 -0.706510 0.076363
v -0.069565 -0.706510 0.108401
v 0.007779 -0.706510 0.076363
v 0.039817 0.818019 -0.000981
v 0.007779 0.818019 -0.078325
v -0.069565 0.818019 -0.110363
v -0.146909 0.818019 -0.078325
v -0.178946 0.818019 -0.000981
v -0.146909 0.818019 0.076363
v -0.069565 0.818019 0.108401
v 0.007779 0.818019 0.076363
v -0.275501 -0.706510 -0.206917
v -0.275501 -0.706510 0.204955
v 0.136371 -0.706510 -0.206917
v 0.136371 -0.706510 0.204955
v -0.275501 -0.832363 -0.206917
v -0.275501 -0.832363 0.204955
v 0.136371 -0.832363 -0.206917
v 0.136371 -0.832363 0.204955
v -0.833107 0.216066 0.184077
v -0.833107 1.118212 0.184077
v 0.693977 0.216066 0.184077
v 0.693977 1.118212 0.184077
v -0.833107 0.216066 0.133858
v -0.833107 1.118212 0.133858
v 0.693977 0.216066 0.133859
v 0.693977 1.118212 0.133859
v -0.833107 0.216066 -0.126356
v -0.833107 1.118212 -0.126356
v 0.693977 0.216066 -0.126356
v 0.693977 1.118212 -0.126356
v -0.833107 0.216066 -0.176574
v -0.833107 1.118212 -0.176574
v 0.693977 0.216066 -0.176574
v 0.693977 1.118212 -0.176574
v -0.833107 0.148089 0.141804
v 0.693977 0.148089 0.141805
v -0.833107 0.148089 0.299572
v 0.693977 0.148089 0.299572
v -0.833107 0.171733 0.141804
v 0.693977 0.171733 0.141805
v -0.833107 0.171733 0.299572
v 0.693977 0.171733 0.299572
v -0.833107 0.148089 -0.291435
v 0.693977 0.148089 -0.291435
v -0.833107 0.148089 -0.133667
v 0.693977 0.148089 -0.133667
v -0.833107 0.171733 -0.291435
v 0.693977 0.171733 -0.291435
v -0.833107 0.171733 -0.133667
v 0.693977 0.171733 -0.133667
v 0.045154 -0.528702 -0.082512
v 0.045154 0.262136 -0.082512
v 0.076585 -0.528702 -0.082512
v 0.076585 0.262136 -0.082512
v 0.045154 -0.528702 -0.051081
v 0.045154 0.262136 -0.051081
v 0.076585 -0.528702 -0.051081
v 0.076585 0.262136 -0.051081
v 0.045154 -0.528702 0.045147
v 0.045154 0.262136 0.045147
v 0.076585 -0.528702 0.045147
v 0.076585 0.262136 0.045147
v 0.045154 -0.528702 0.076578
v 0.045154 0.262136 0.076578
v 0.076585 -0.528702 0.076578
v 0.076585 0.262136 0.076578
v 0.048409 0.199091 -0.066796
v 0.073330 0.199091 -0.066796
v 0.048409 0.174169 -0.066796
v 0.073330 0.174169 -0.066796
v 0.048409 0.199091 0.064542
v 0.073330 0.199091 0.064542
v 0.073330 0.174169 0.064542
v 0.048409 0.174169 0.064542
v 0.048409 0.076165 -0.066796
v 0.073330 0.076165 -0.066796
v 0.048409 0.051244 -0.066796
v 0.073330 0.051244 -0.066796
v 0.048409 0.076165 0.064542
v 0.073330 0.076165 0.064542
v 0.073330 0.051244 0.064542
v 0.048409 0.051244 0.064542
v 0.048409 -0.046760 -0.066796
v 0.073330 -0.046760 -0.066796
v 0.048409 -0.071682 -0.066796
v 0.073330 -0.071682 -0.066796
v 0.048409 -0.046760 0.064542
v 0.073330 -0.046760 0.064542
v 0.073330 -0.071682 0.064542
v 0.048409 -0.071682 0.064542
v 0.048409 -0.171521 -0.066796
v 0.073330 -0.171521 -0.066796
v 0.048409 -0.196442 -0.066796
v 0.073330 -0.196442 -0.066796
v 0.048409 -0.171521 0.064542
v 0.073330 -0.171521 0.064542
v 0.073330 -0.196442 0.064542
v 0.048409 -0.196442 0.064542
v 0.048409 -0.294446 -0.066796
v 0.073330 -0.294446 -0.066796
v 0.048409 -0.319368 -0.066796
v 0.073330 -0.319368 -0.066796
v 0.048409 -0.294446 0.064542
v 0.073330 -0.294446 0.064542
v 0.073330 -0.319368 0.064542
v 0.048409 -0.319368 0.064542
v 0.048409 -0.417372 -0.066796
v 0.073330 -0.417372 -0.066796
v 0.048409 -0.442293 -0.066796
v 0.073330 -0.442293 -0.066796
v 0.048409 -0.417372 0.064542
v 0.073330 -0.417372 0.064542
v 0.073330 -0.442293 0.064542
v 0.048409 -0.442293 0.064542
vt 0.7238 0.8545
vt 0.7238 0.4450
vt 0.7435 0.4450
vt 0.7435 0.8545
vt 0.6387 0.4450
vt 0.6387 0.8545
vt 0.6190 0.8545
vt 0.6190 0.4450
vt 0.7587 0.8545
vt 0.7587 0.4450
vt 0.7784 0.4450
vt 0.7784 0.8545
vt 0.6889 0.8545
vt 0.6889 0.4450
vt 0.7085 0.4450
vt 0.7085 0.8545
vt 0.5841 0.8545
vt 0.5841 0.4450
vt 0.6037 0.4450
vt 0.6037 0.8545
vt 0.6736 0.4450
vt 0.6736 0.8545
vt 0.6539 0.8545
vt 0.6539 0.4450
vt 0.8133 0.4450
vt 0.8133 0.8545
vt 0.7936 0.8545
vt 0.7936 0.4450
vt 0.5492 0.8545
vt 0.5492 0.4450
vt 0.5688 0.4450
vt 0.5688 0.8545
vt 0.5237 0.8510
vt 0.5318 0.8302
vt 0.5318 0.8717
vt 0.7708 0.9249
vt 0.7557 0.8865
vt 0.7708 0.8706
vt 0.6889 0.8706
vt 0.7102 0.8706
vt 0.7102 0.9249
vt 0.6437 0.8706
vt 0.6650 0.9249
vt 0.6437 0.9249
vt 0.7254 0.9090
vt 0.7405 0.8706
vt 0.7405 0.9249
vt 0.7942 0.9122
vt 0.7860 0.8914
vt 0.7942 0.8706
vt 0.4291 0.4450
vt 0.5339 0.4450
vt 0.5339 0.5557
vt 0.4291 0.5557
vt 0.4612 0.9408
vt 0.4291 0.9408
vt 0.4291 0.8302
vt 0.4612 0.8302
vt 0.4764 0.8302
vt 0.5084 0.8302
vt 0.5084 0.9408
vt 0.4764 0.9408
vt 0.5492 0.8706
vt 0.5812 0.8706
vt 0.5812 0.9813
vt 0.5492 0.9813
vt 0.5964 0.8706
vt 0.6284 0.8706
vt 0.6284 0.9813
vt 0.5964 0.9813
vt 0.2630 0.4289
vt 0.2630 0.0187
vt 0.4924 0.0187
vt 0.4924 0.4289
vt 0.4291 0.5718
vt 0.4419 0.5718
vt 0.4419 0.8141
vt 0.4291 0.8141
vt 0.2477 0.4450
vt 0.2477 0.8552
vt 0.0183 0.8552
vt 0.0183 0.4450
vt 0.5132 0.5718
vt 0.5260 0.5718
vt 0.5260 0.8141
vt 0.5132 0.8141
vt 0.8486 0.0187
vt 0.8486 0.4289
vt 0.8358 0.4289
vt 0.8358 0.0187
vt 0.8205 0.0187
vt 0.8205 0.4289
vt 0.8078 0.4289
vt 0.8078 0.0187
vt 0.0183 0.4289
vt 0.0183 0.0187
vt 0.2477 0.0187
vt 0.2477 0.4289
vt 0.4852 0.5718
vt 0.4980 0.5718
vt 0.4980 0.8141
vt 0.4852 0.8141
vt 0.7371 0.0187
vt 0.7371 0.4289
vt 0.5077 0.4289
vt 0.5077 0.0187
vt 0.4700 0.8141
vt 0.4572 0.8141
vt 0.4572 0.5718
vt 0.4700 0.5718
vt 0.8694 0.4450
vt 0.8694 0.8552
vt 0.8566 0.8552
vt 0.8566 0.4450
vt 0.8413 0.4450
vt 0.8413 0.8552
vt 0.8286 0.8552
vt 0.8286 0.4450
vt 0.3738 0.4450
vt 0.4139 0.4450
vt 0.4139 0.8552
vt 0.3738 0.8552
vt 0.3031 0.4450
vt 0.3031 0.8552
vt 0.2630 0.8552
vt 0.2630 0.4450
vt 0.0881 0.8713
vt 0.0881 0.9137
vt 0.0821 0.9137
vt 0.0821 0.8713
vt 0.9059 0.8552
vt 0.9059 0.4450
vt 0.9119 0.4450
vt 0.9119 0.8552
vt 0.0456 0.8713
vt 0.0456 0.9137
vt 0.0396 0.9137
vt 0.0396 0.8713
vt 0.8907 0.4450
vt 0.8907 0.8552
vt 0.8846 0.8552
vt 0.8846 0.4450
vt 0.3184 0.4450
vt 0.3585 0.4450
vt 0.3585 0.8552
vt 0.3184 0.8552
vt 0.7925 0.0187
vt 0.7925 0.4289
vt 0.7524 0.4289
vt 0.7524 0.0187
vt 0.0669 0.8713
vt 0.0669 0.9137
vt 0.0609 0.9137
vt 0.0609 0.8713
vt 0.8851 0.4289
vt 0.8851 0.0187
vt 0.8911 0.0187
vt 0.8911 0.4289
vt 0.0243 0.8713
vt 0.0243 0.9137
vt 0.0183 0.9137
vt 0.0183 0.8713
vt 0.8698 0.0187
vt 0.8698 0.4289
vt 0.8638 0.4289
vt 0.8638 0.0187
vt 0.9737 0.8860
vt 0.9737 0.6736
vt 0.9817 0.6736
vt 0.9817 0.8860
vt 0.9352 0.4450
vt 0.9352 0.6574
vt 0.9272 0.6574
vt 0.9272 0.4450
vt 0.9529 0.2312
vt 0.9529 0.0187
vt 0.9609 0.0187
vt 0.9609 0.2312
vt 0.9296 0.2312
vt 0.9296 0.0187
vt 0.9376 0.0187
vt 0.9376 0.2312
vt 0.2675 0.9227
vt 0.2675 0.9311
vt 0.2596 0.9311
vt 0.2596 0.9227
vt 0.2443 0.9227
vt 0.2443 0.9311
vt 0.2363 0.9311
vt 0.2363 0.9227
vt 0.9737 0.6574
vt 0.9737 0.4450
vt 0.9817 0.4450
vt 0.9817 0.6574
vt 0.9144 0.0187
vt 0.9144 0.2312
vt 0.9064 0.2312
vt 0.9064 0.0187
vt 0.9504 0.6574
vt 0.9504 0.4450
vt 0.9584 0.4450
vt 0.9584 0.6574
vt 0.9272 0.8860
vt 0.9272 0.6736
vt 0.9352 0.6736
vt 0.9352 0.8860
vt 0.1978 0.9227
vt 0.1978 0.9311
vt 0.1898 0.9311
vt 0.1898 0.9227
vt 0.2210 0.9227
vt 0.2210 0.9311
vt 0.2130 0.9311
vt 0.2130 0.9227
vt 0.8781 0.9227
vt 0.8781 0.9294
vt 0.8718 0.9294
vt 0.8718 0.9227
vt 0.8286 0.9294
vt 0.8286 0.9227
vt 0.8349 0.9227
vt 0.8349 0.9294
vt 0.3626 0.8713
vt 0.3689 0.8713
vt 0.3689 0.9066
vt 0.3626 0.9066
vt 0.5237 0.8879
vt 0.5300 0.8879
vt 0.5300 0.9231
vt 0.5237 0.9231
vt 0.8502 0.8713
vt 0.8565 0.8713
vt 0.8565 0.9066
vt 0.8502 0.9066
vt 0.8286 0.8713
vt 0.8349 0.8713
vt 0.8349 0.9066
vt 0.8286 0.9066
vt 0.7924 0.9283
vt 0.7924 0.9350
vt 0.7860 0.9350
vt 0.7860 0.9283
vt 0.3908 0.9294
vt 0.3908 0.9227
vt 0.3971 0.9227
vt 0.3971 0.9294
vt 0.2978 0.8713
vt 0.3041 0.8713
vt 0.3041 0.9066
vt 0.2978 0.9066
vt 0.8718 0.8713
vt 0.8781 0.8713
vt 0.8781 0.9066
vt 0.8718 0.9066
vt 0.3194 0.8713
vt 0.3257 0.8713
vt 0.3257 0.9066
vt 0.3194 0.9066
vt 0.3410 0.8713
vt 0.3473 0.8713
vt 0.3473 0.9066
vt 0.3410 0.9066
vt 0.8565 0.9227
vt 0.8565 0.9294
vt 0.8502 0.9294
vt 0.8502 0.9227
vt 0.3692 0.9294
vt 0.3692 0.9227
vt 0.3755 0.9227
vt 0.3755 0.9294
vt 0.2114 0.8713
vt 0.2177 0.8713
vt 0.2177 0.9066
vt 0.2114 0.9066
vt 0.8934 0.8713
vt 0.8997 0.8713
vt 0.8997 0.9066
vt 0.8934 0.9066
vt 0.2762 0.8713
vt 0.2825 0.8713
vt 0.2825 0.9066
vt 0.2762 0.9066
vt 0.1961 0.9066
vt 0.1898 0.9066
vt 0.1898 0.8713
vt 0.1961 0.8713
vt 0.3323 0.9227
vt 0.3323 0.9294
vt 0.3260 0.9294
vt 0.3260 0.9227
vt 0.2828 0.9294
vt 0.2828 0.9227
vt 0.2891 0.9227
vt 0.2891 0.9294
vt 0.2330 0.8713
vt 0.2393 0.8713
vt 0.2393 0.9066
vt 0.2330 0.9066
vt 0.1034 0.9227
vt 0.1097 0.9227
vt 0.1097 0.9580
vt 0.1034 0.9580
vt 0.1682 0.8713
vt 0.1745 0.8713
vt 0.1745 0.9066
vt 0.1682 0.9066
vt 0.1097 0.9066
vt 0.1034 0.9066
vt 0.1034 0.8713
vt 0.1097 0.8713
vt 0.0463 0.9298
vt 0.0463 0.9365
vt 0.0399 0.9365
vt 0.0399 0.9298
vt 0.0183 0.9365
vt 0.0183 0.9298
vt 0.0247 0.9298
vt 0.0247 0.9365
vt 0.2546 0.8713
vt 0.2609 0.8713
vt 0.2609 0.9066
vt 0.2546 0.9066
vt 0.1250 0.9227
vt 0.1313 0.9227
vt 0.1313 0.9580
vt 0.1250 0.9580
vt 0.4058 0.8713
vt 0.4121 0.8713
vt 0.4121 0.9066
vt 0.4058 0.9066
vt 0.1745 0.9580
vt 0.1682 0.9580
vt 0.1682 0.9227
vt 0.1745 0.9227
vt 0.3539 0.9227
vt 0.3539 0.9294
vt 0.3476 0.9294
vt 0.3476 0.9227
vt 0.3044 0.9294
vt 0.3044 0.9227
vt 0.3107 0.9227
vt 0.3107 0.9294
vt 0.3842 0.8713
vt 0.3905 0.8713
vt 0.3905 0.9066
vt 0.3842 0.9066
vt 0.1466 0.9227
vt 0.1529 0.9227
vt 0.1529 0.9580
vt 0.1466 0.9580
vt 0.1466 0.8713
vt 0.1529 0.8713
vt 0.1529 0.9066
vt 0.1466 0.9066
vt 0.1250 0.8713
vt 0.1313 0.8713
vt 0.1313 0.9066
vt 0.1250 0.9066
vn -0.3827 0.0000 -0.9239
vn 0.9239 0.0000 -0.3827
vn 0.9239 0.0000 0.3827
vn -0.3827 0.0000 0.9239
vn -0.9239 0.0000 -0.3827
vn 0.3827 0.0000 -0.9239
vn 0.3827 0.0000 0.9239
vn -0.9239 0.0000 0.3827
vn 0.0000 1.0000 0.0000
vn 0.0000 0.0000 -1.0000
vn -0.0000 0.0000 1.0000
vn 1.0000 0.0000 0.0000
vn -1.0000 0.0000 0.0000
vn 0.0000 -1.0000 0.0000
usemtl None
s off
f 4/1/1 12/2/1 11/3/1 3/4/1
f 2/5/2 10/6/2 9/7/2 1/8/2
f 1/9/3 9/10/3 16/11/3 8/12/3
f 7/13/4 15/14/4 14/15/4 6/16/4
f 5/17/5 13/18/5 12/19/5 4/20/5
f 3/21/6 11/22/6 10/23/6 2/24/6
f 8/25/7 16/26/7 15/27/7 7/28/7
f 6/29/8 14/30/8 13/31/8 5/32/8
f 16/33/9 9/34/9 15/35/9
f 15/36/9 9/37/9 10/38/9
f 14/39/9 15/40/9 10/41/9
f 14/42/9 10/43/9 11/44/9
f 12/45/9 14/46/9 11/47/9
f 12/48/9 13/49/9 14/50/9
f 17/51/9 18/52/9 20/53/9 19/54/9
f 19/55/10 23/56/10 21/57/10 17/58/10
f 18/59/11 22/60/11 24/61/11 20/62/11
f 20/63/12 24/64/12 23/65/12 19/66/12
f 17/67/13 21/68/13 22/69/13 18/70/13
f 25/71/11 27/72/11 28/73/11 26/74/11
f 27/75/12 31/76/12 32/77/12 28/78/12
f 31/79/10 29/80/10 30/81/10 32/82/10
f 29/83/13 25/84/13 26/85/13 30/86/13
f 27/87/14 25/88/14 29/89/14 31/90/14
f 32/91/9 30/92/9 26/93/9 28/94/9
f 33/95/11 35/96/11 36/97/11 34/98/11
f 35/99/12 39/100/12 40/101/12 36/102/12
f 39/103/10 37/104/10 38/105/10 40/106/10
f 37/107/13 33/108/13 34/109/13 38/110/13
f 35/111/14 33/112/14 37/113/14 39/114/14
f 40/115/9 38/116/9 34/117/9 36/118/9
f 42/119/14 44/120/14 43/121/14 41/122/14
f 46/123/9 45/124/9 47/125/9 48/126/9
f 44/127/12 42/128/12 46/129/12 48/130/12
f 43/131/11 44/132/11 48/133/11 47/134/11
f 41/135/13 43/136/13 47/137/13 45/138/13
f 42/139/10 41/140/10 45/141/10 46/142/10
f 50/143/14 52/144/14 51/145/14 49/146/14
f 54/147/9 53/148/9 55/149/9 56/150/9
f 52/151/12 50/152/12 54/153/12 56/154/12
f 51/155/11 52/156/11 56/157/11 55/158/11
f 49/159/13 51/160/13 55/161/13 53/162/13
f 50/163/10 49/164/10 53/165/10 54/166/10
f 57/167/10 58/168/10 60/169/10 59/170/10
f 59/171/12 60/172/12 64/173/12 63/174/12
f 63/175/11 64/176/11 62/177/11 61/178/11
f 61/179/13 62/180/13 58/181/13 57/182/13
f 59/183/14 63/184/14 61/185/14 57/186/14
f 64/187/9 60/188/9 58/189/9 62/190/9
f 65/191/10 66/192/10 68/193/10 67/194/10
f 67/195/12 68/196/12 72/197/12 71/198/12
f 71/199/11 72/200/11 70/201/11 69/202/11
f 69/203/13 70/204/13 66/205/13 65/206/13
f 67/207/14 71/208/14 69/209/14 65/210/14
f 72/211/9 68/212/9 66/213/9 70/214/9
f 76/215/10 75/216/10 73/217/10 74/218/10
f 79/219/11 78/220/11 77/221/11 80/222/11
f 75/223/14 76/224/14 79/225/14 80/226/14
f 74/227/9 73/228/9 77/229/9 78/230/9
f 73/231/13 75/232/13 80/233/13 77/234/13
f 76/235/12 74/236/12 78/237/12 79/238/12
f 84/239/10 83/240/10 81/241/10 82/242/10
f 87/243/11 86/244/11 85/245/11 88/246/11
f 83/247/14 84/248/14 87/249/14 88/250/14
f 82/251/9 81/252/9 85/253/9 86/254/9
f 81/255/13 83/256/13 88/257/13 85/258/13
f 84/259/12 82/260/12 86/261/12 87/262/12
f 92/263/10 91/264/10 89/265/10 90/266/10
f 95/267/11 94/268/11 93/269/11 96/270/11
f 91/271/14 92/272/14 95/273/14 96/274/14
f 90/275/9 89/276/9 93/277/9 94/278/9
f 89/279/13 91/280/13 96/281/13 93/282/13
f 92/283/12 90/284/12 94/285/12 95/286/12
f 100/287/10 99/288/10 97/289/10 98/290/10
f 103/291/11 102/292/11 101/293/11 104/294/11
f 99/295/14 100/296/14 103/297/14 104/298/14
f 98/299/9 97/300/9 101/301/9 102/302/9
f 97/303/13 99/304/13 104/305/13 101/306/13
f 100/307/12 98/308/12 102/309/12 103/310/12
f 108/311/10 107/312/10 105/313/10 106/314/10
f 111/315/11 110/316/11 109/317/11 112/318/11
f 107/319/14 108/320/14 111/321/14 112/322/14
f 106/323/9 105/324/9 109/325/9 110/326/9
f 105/327/13 107/328/13 112/329/13 109/330/13
f 108/331/12 106/332/12 110/333/12 111/334/12
f 116/335/10 115/336/10 113/337/10 114/338/10
f 119/339/11 118/340/11 117/341/11 120/342/11
f 115/343/14 116/344/14 119/345/14 120/346/14
f 114/347/9 113/348/9 117/349/9 118/350/9
f 113/351/13 115/352/13 120/353/13 117/354/13
f 116/355/12 114/356/12 118/357/12 119/358/12
